<svg xmlns="http://www.w3.org/2000/svg" viewBox="0 0 16 16" width="16" height="16">
  <!-- llama exterior -->
  <path d="M8 1 C5 4 2.5 7 3.5 11 C4.5 14.5 6.5 15.5 8 15.5 C9.5 15.5 11.5 14.5 12.5 11 C13.5 7 11 4 8 1 Z" fill="#e04800"/>
  <!-- llama media -->
  <path d="M8 4.5 C6 7 5 9.5 6 12.5 C7 14.5 8 15 8 15 C8 15 9 14.5 10 12.5 C11 9.5 10 7 8 4.5 Z" fill="#f07800"/>
  <!-- núcleo caliente -->
  <path d="M8 8 C7 10 7.2 12.5 8 13.5 C8.8 12.5 9 10 8 8 Z" fill="#ffdd00"/>
  <!-- chispa -->
  <circle cx="5.5" cy="5" r="0.7" fill="#ffaa00" opacity="0.8"/>
  <circle cx="11" cy="6" r="0.5" fill="#ffaa00" opacity="0.8"/>
</svg>
